<svg xmlns="http://www.w3.org/2000/svg" width="1200" height="630" viewBox="0 0 1200 630"><defs><pattern id="grid" width="44" height="44" patternUnits="userSpaceOnUse"><path fill="none" stroke="#fff" stroke-opacity=".045" d="M44 0H0V44"/></pattern><radialGradient id="glow" cx="75%" cy="25%" r="55%"><stop offset="0" stop-color="#eefb7a" stop-opacity=".17"/><stop offset="1" stop-color="#eefb7a" stop-opacity="0"/></radialGradient><filter id="shadow" width="160%" height="180%" x="-30%" y="-30%"><feDropShadow dx="0" dy="28" flood-color="#000" flood-opacity=".55" stdDeviation="30"/></filter></defs><rect width="1200" height="630" fill="#0b0d0f"/><rect width="1200" height="630" fill="url(#grid)"/><rect width="1200" height="630" fill="url(#glow)"/><g transform="translate(72 60)"><rect width="54" height="54" fill="#fff" rx="15"/><path fill="none" stroke="#0b0d0f" stroke-linecap="round" stroke-linejoin="round" stroke-width="4" d="M27 36V16m0 0-9 9m9-9 9 9M14 34v4a7 7 0 0 0 7 7h12a7 7 0 0 0 7-7v-4"/><text x="72" y="25" fill="#fff" font-family="Arial, Helvetica, sans-serif" font-size="24" font-style="italic" font-weight="900">UPLOADFLOW</text><text x="72" y="44" fill="#fff" fill-opacity=".36" font-family="Arial, Helvetica, sans-serif" font-size="10" font-weight="700" letter-spacing="3">PRIVATE UPLOAD TOOLKIT</text></g><g><text fill="#fff" font-family="Arial, Helvetica, sans-serif" font-size="67" font-style="italic" font-weight="900" letter-spacing="-4" transform="translate(72 190)"><tspan x="0" y="0">OWN EVERY FILE</tspan> <tspan x="0" y="72">BEFORE IT</tspan> <tspan x="0" y="144" fill="#eefb7a">UPLOADS.</tspan></text><text x="2" y="203" fill="#fff" fill-opacity=".48" font-family="Arial, Helvetica, sans-serif" font-size="18" transform="translate(72 190)">Optimize. Protect. Return to the original flow.</text><g transform="translate(72 190) translate(0 240)"><rect width="178" height="42" fill="#eefb7a" rx="21"/><circle cx="22" cy="21" r="4" fill="#0b0d0f"/><text x="37" y="26" fill="#0b0d0f" font-family="Arial, Helvetica, sans-serif" font-size="11" font-weight="800" letter-spacing="1.3">RUNS LOCALLY</text></g></g><g filter="url(#shadow)" transform="translate(690 120)"><rect width="430" height="390" fill="#161a1c" stroke="#fff" stroke-opacity=".16" rx="24"/><path stroke="#fff" stroke-opacity=".1" d="M0 54h430"/><circle cx="25" cy="27" r="5" fill="#ff6b5e"/><circle cx="43" cy="27" r="5" fill="#f4c95d"/><circle cx="61" cy="27" r="5" fill="#58c477"/><text x="285" y="31" fill="#fff" fill-opacity=".35" font-family="monospace" font-size="9">PRIVATE WORKSPACE</text><text x="28" y="90" fill="#eefb7a" font-family="Arial, Helvetica, sans-serif" font-size="9" font-weight="800" letter-spacing="1.5">2 FILES INTERCEPTED</text><text x="28" y="122" fill="#fff" font-family="Arial, Helvetica, sans-serif" font-size="22" font-style="italic" font-weight="900">REVIEW BEFORE UPLOAD</text><rect width="220" height="166" x="28" y="148" fill="#293237" stroke="#fff" stroke-opacity=".1" rx="16"/><rect width="196" height="103" x="40" y="160" fill="#8ba89c" rx="10"/><circle cx="138" cy="208" r="30" fill="none" stroke="#fff" stroke-opacity=".55" stroke-width="14"/><rect width="128" height="7" x="40" y="275" fill="#fff" fill-opacity=".7" rx="3.5"/><rect width="90" height="5" x="40" y="290" fill="#fff" fill-opacity=".2" rx="2.5"/><rect width="138" height="166" x="264" y="148" fill="#fff" fill-opacity=".025" stroke="#fff" stroke-dasharray="6 6" stroke-opacity=".15" rx="16"/><rect width="32" height="32" x="280" y="165" fill="none" stroke="#fff" stroke-opacity=".2" rx="8"/><path stroke="#fff" stroke-linecap="round" stroke-opacity=".65" stroke-width="2" d="M296 174v14m-7-7h14"/><text x="280" y="225" fill="#fff" fill-opacity=".65" font-family="Arial, Helvetica, sans-serif" font-size="10" font-weight="700">DROP ANOTHER FILE</text><path stroke="#fff" stroke-opacity=".1" d="M28 338h374"/><text x="28" y="368" fill="#fff" fill-opacity=".3" font-family="Arial, Helvetica, sans-serif" font-size="9" letter-spacing="1">ORIGINALS STAY UNTOUCHED</text><rect width="102" height="26" x="300" y="349" fill="#fff" rx="8"/><text x="321" y="366" fill="#0b0d0f" font-family="Arial, Helvetica, sans-serif" font-size="9" font-weight="800">CONTINUE</text></g><rect width="104" height="104" x="1040" y="480" fill="#eefb7a" rx="22" transform="rotate(5 1040 480)"/><text x="1062" y="527" fill="#0b0d0f" font-family="Arial, Helvetica, sans-serif" font-size="12" font-weight="800" transform="rotate(5 1062 527)">SMALLER</text><text x="1063" y="555" fill="#0b0d0f" font-family="Arial, Helvetica, sans-serif" font-size="27" font-weight="900" transform="rotate(5 1063 555)">−68%</text></svg>