<svg xmlns="http://www.w3.org/2000/svg" width="1200" height="630" viewBox="0 0 1200 630">
  <defs>
    <pattern id="grid" width="44" height="44" patternUnits="userSpaceOnUse">
      <path d="M44 0H0V44" fill="none" stroke="#ffffff" stroke-opacity=".045"/>
    </pattern>
    <radialGradient id="glow" cx="75%" cy="25%" r="55%">
      <stop offset="0" stop-color="#eefb7a" stop-opacity=".17"/>
      <stop offset="1" stop-color="#eefb7a" stop-opacity="0"/>
    </radialGradient>
    <filter id="shadow" x="-30%" y="-30%" width="160%" height="180%">
      <feDropShadow dx="0" dy="28" stdDeviation="30" flood-color="#000000" flood-opacity=".55"/>
    </filter>
  </defs>
  <rect width="1200" height="630" fill="#0b0d0f"/>
  <rect width="1200" height="630" fill="url(#grid)"/>
  <rect width="1200" height="630" fill="url(#glow)"/>

  <g transform="translate(72 60)">
    <rect width="54" height="54" rx="15" fill="#ffffff"/>
    <path d="M27 36V16m0 0-9 9m9-9 9 9M14 34v4a7 7 0 0 0 7 7h12a7 7 0 0 0 7-7v-4" fill="none" stroke="#0b0d0f" stroke-width="4" stroke-linecap="round" stroke-linejoin="round"/>
    <text x="72" y="25" fill="#ffffff" font-family="Arial, Helvetica, sans-serif" font-size="24" font-weight="900" font-style="italic">UPLOADFLOW</text>
    <text x="72" y="44" fill="#ffffff" fill-opacity=".36" font-family="Arial, Helvetica, sans-serif" font-size="10" font-weight="700" letter-spacing="3">PRIVATE UPLOAD TOOLKIT</text>
  </g>

  <g transform="translate(72 190)">
    <text fill="#ffffff" font-family="Arial, Helvetica, sans-serif" font-size="67" font-weight="900" font-style="italic" letter-spacing="-4">
      <tspan x="0" y="0">OWN EVERY FILE</tspan>
      <tspan x="0" y="72">BEFORE IT</tspan>
      <tspan x="0" y="144" fill="#eefb7a">UPLOADS.</tspan>
    </text>
    <text x="2" y="203" fill="#ffffff" fill-opacity=".48" font-family="Arial, Helvetica, sans-serif" font-size="18">
      Optimize. Protect. Return to the original flow.
    </text>
    <g transform="translate(0 240)">
      <rect width="178" height="42" rx="21" fill="#eefb7a"/>
      <circle cx="22" cy="21" r="4" fill="#0b0d0f"/>
      <text x="37" y="26" fill="#0b0d0f" font-family="Arial, Helvetica, sans-serif" font-size="11" font-weight="800" letter-spacing="1.3">RUNS LOCALLY</text>
    </g>
  </g>

  <g transform="translate(690 120)" filter="url(#shadow)">
    <rect width="430" height="390" rx="24" fill="#161a1c" stroke="#ffffff" stroke-opacity=".16"/>
    <path d="M0 54h430" stroke="#ffffff" stroke-opacity=".1"/>
    <circle cx="25" cy="27" r="5" fill="#ff6b5e"/><circle cx="43" cy="27" r="5" fill="#f4c95d"/><circle cx="61" cy="27" r="5" fill="#58c477"/>
    <text x="285" y="31" fill="#ffffff" fill-opacity=".35" font-family="monospace" font-size="9">PRIVATE WORKSPACE</text>
    <text x="28" y="90" fill="#eefb7a" font-family="Arial, Helvetica, sans-serif" font-size="9" font-weight="800" letter-spacing="1.5">2 FILES INTERCEPTED</text>
    <text x="28" y="122" fill="#ffffff" font-family="Arial, Helvetica, sans-serif" font-size="22" font-weight="900" font-style="italic">REVIEW BEFORE UPLOAD</text>
    <rect x="28" y="148" width="220" height="166" rx="16" fill="#293237" stroke="#ffffff" stroke-opacity=".1"/>
    <rect x="40" y="160" width="196" height="103" rx="10" fill="#8ba89c"/>
    <circle cx="138" cy="208" r="30" fill="none" stroke="#ffffff" stroke-opacity=".55" stroke-width="14"/>
    <rect x="40" y="275" width="128" height="7" rx="3.5" fill="#ffffff" fill-opacity=".7"/>
    <rect x="40" y="290" width="90" height="5" rx="2.5" fill="#ffffff" fill-opacity=".2"/>
    <rect x="264" y="148" width="138" height="166" rx="16" fill="#ffffff" fill-opacity=".025" stroke="#ffffff" stroke-opacity=".15" stroke-dasharray="6 6"/>
    <rect x="280" y="165" width="32" height="32" rx="8" fill="none" stroke="#ffffff" stroke-opacity=".2"/>
    <path d="M296 174v14m-7-7h14" stroke="#ffffff" stroke-opacity=".65" stroke-width="2" stroke-linecap="round"/>
    <text x="280" y="225" fill="#ffffff" fill-opacity=".65" font-family="Arial, Helvetica, sans-serif" font-size="10" font-weight="700">DROP ANOTHER FILE</text>
    <path d="M28 338h374" stroke="#ffffff" stroke-opacity=".1"/>
    <text x="28" y="368" fill="#ffffff" fill-opacity=".3" font-family="Arial, Helvetica, sans-serif" font-size="9" letter-spacing="1">ORIGINALS STAY UNTOUCHED</text>
    <rect x="300" y="349" width="102" height="26" rx="8" fill="#ffffff"/>
    <text x="321" y="366" fill="#0b0d0f" font-family="Arial, Helvetica, sans-serif" font-size="9" font-weight="800">CONTINUE</text>
  </g>

  <rect x="1040" y="480" width="104" height="104" rx="22" fill="#eefb7a" transform="rotate(5 1040 480)"/>
  <text x="1062" y="527" fill="#0b0d0f" font-family="Arial, Helvetica, sans-serif" font-size="12" font-weight="800" transform="rotate(5 1062 527)">SMALLER</text>
  <text x="1063" y="555" fill="#0b0d0f" font-family="Arial, Helvetica, sans-serif" font-size="27" font-weight="900" transform="rotate(5 1063 555)">−68%</text>
</svg>
