<svg xmlns="http://www.w3.org/2000/svg" width="1080" height="1920" viewBox="0 0 1080 1920"><defs><pattern id="g" width="48" height="48" patternUnits="userSpaceOnUse"><path d="M48 0H0V48" fill="none" stroke="#fff" stroke-opacity=".04"/></pattern><linearGradient id="p" x1="0" x2="1" y2="1"><stop stop-color="#56777d"/><stop offset=".55" stop-color="#99bca8"/><stop offset="1" stop-color="#d9d6a5"/></linearGradient></defs><rect width="1080" height="1920" fill="#090c0d"/><rect width="1080" height="1920" fill="url(#g)"/>
  <g font-family="Arial,Helvetica,sans-serif"><text x="70" y="110" fill="#eefb7a" font-size="15" font-weight="800" letter-spacing="5">PRIVATE WORKSPACE · 03</text><text x="70" y="190" fill="#fff" font-size="64" font-weight="900" font-style="italic">MAKE IT SMALLER.</text></g>
  <g transform="translate(70 270)"><rect width="940" height="1290" rx="38" fill="#101416" stroke="#fff" stroke-opacity=".18" stroke-width="2"/><rect width="940" height="88" rx="38" fill="#151a1c"/><path d="M0 88H940" stroke="#fff" stroke-opacity=".12"/><circle cx="42" cy="44" r="10" fill="#ff6b65"/><circle cx="75" cy="44" r="10" fill="#f5c85b"/><circle cx="108" cy="44" r="10" fill="#57c981"/><text x="890" y="51" text-anchor="end" fill="#fff" fill-opacity=".35" font-family="monospace" font-size="15">PROCESSING LOCALLY</text><rect y="88" width="225" height="1202" fill="#111618"/><path d="M225 88V1290" stroke="#fff" stroke-opacity=".12"/>
    <g font-family="Arial,Helvetica,sans-serif"><rect x="28" y="130" width="58" height="58" rx="17" fill="#fff"/><text x="102" y="167" fill="#fff" font-size="22" font-weight="900" font-style="italic">UPLOADFLOW</text><text x="43" y="275" fill="#fff" fill-opacity=".35" font-size="17" font-weight="800">01</text><text x="82" y="275" fill="#fff" fill-opacity=".45" font-size="17" font-weight="800">FILES</text><rect x="22" y="317" width="181" height="64" rx="16" fill="#fff"/><text x="44" y="357" fill="#101416" font-size="17" font-weight="900">02</text><text x="82" y="357" fill="#101416" font-size="17" font-weight="900">OPTIMIZE</text><text x="270" y="170" fill="#34d399" font-size="14" font-weight="900" letter-spacing="4">IMAGE WORKSPACE</text><text x="270" y="234" fill="#fff" font-size="40" font-weight="900" font-style="italic">OPTIMIZE FOR THE WEB</text>
      <rect x="270" y="310" width="390" height="540" rx="28" fill="url(#p)"/><circle cx="465" cy="485" r="70" fill="#fff" fill-opacity=".4"/><circle cx="465" cy="485" r="45" fill="#49665d"/><path d="M350 850c0-150 52-280 115-280s115 130 115 280" fill="#425c52"/><rect x="690" y="310" width="200" height="540" rx="28" fill="#171c1e" stroke="#fff" stroke-opacity=".12"/><text x="720" y="365" fill="#fff" fill-opacity=".4" font-size="14" font-weight="800" letter-spacing="2">QUALITY</text><text x="720" y="420" fill="#fff" font-size="34" font-weight="900">82%</text><rect x="720" y="460" width="140" height="9" rx="5" fill="#fff" fill-opacity=".12"/><rect x="720" y="460" width="112" height="9" rx="5" fill="#eefb7a"/><circle cx="832" cy="464" r="17" fill="#eefb7a"/><text x="720" y="545" fill="#fff" fill-opacity=".4" font-size="14" font-weight="800">FORMAT</text><rect x="720" y="575" width="140" height="58" rx="14" fill="#0e1214"/><text x="790" y="612" text-anchor="middle" fill="#fff" font-size="18" font-weight="900">WEBP</text><text x="720" y="700" fill="#34d399" font-size="14" font-weight="900">ESTIMATED</text><text x="720" y="755" fill="#fff" font-size="34" font-weight="900">1.5 MB</text>
      <rect x="270" y="900" width="620" height="150" rx="25" fill="#eefb7a"/><text x="305" y="948" fill="#101416" font-family="monospace" font-size="14" letter-spacing="3">LATEST RESULT</text><text x="305" y="1010" fill="#101416" font-size="48" font-weight="900">−68%</text><text x="470" y="1007" fill="#101416" font-size="17" font-weight="900">SMALLER FILE</text><rect x="585" y="1150" width="305" height="76" rx="18" fill="#fff"/><text x="737" y="1198" text-anchor="middle" fill="#101416" font-size="19" font-weight="900">CONTINUE WITH 1 FILE</text>
    </g></g><text x="70" y="1740" fill="#fff" fill-opacity=".3" font-family="monospace" font-size="18">Resize. Compress. Convert. Nothing leaves your device.</text></svg>
