<svg xmlns="http://www.w3.org/2000/svg" width="1080" height="1920" viewBox="0 0 1080 1920">
  <defs><pattern id="grid" width="48" height="48" patternUnits="userSpaceOnUse"><path d="M48 0H0V48" fill="none" stroke="#101416" stroke-opacity=".06"/></pattern><radialGradient id="glow" cx="80%" cy="15%" r="70%"><stop offset="0" stop-color="#fff" stop-opacity=".55"/><stop offset="1" stop-color="#fff" stop-opacity="0"/></radialGradient></defs>
  <rect width="1080" height="1920" fill="#eefb7a"/><rect width="1080" height="1920" fill="url(#grid)"/><rect width="1080" height="1920" fill="url(#glow)"/>
  <g transform="translate(70 72)"><rect width="70" height="70" rx="20" fill="#101416"/><path d="M35 48V20m0 0-12 12m12-12 12 12M18 45v5a9 9 0 0 0 9 9h16a9 9 0 0 0 9-9v-5" fill="none" stroke="#fff" stroke-width="5" stroke-linecap="round" stroke-linejoin="round"/><text x="94" y="44" fill="#101416" font-family="Arial,Helvetica,sans-serif" font-size="32" font-weight="900" font-style="italic">UPLOADFLOW</text></g>
  <g transform="translate(70 330)"><text fill="#101416" fill-opacity=".45" font-family="Arial,Helvetica,sans-serif" font-size="16" font-weight="900" letter-spacing="5">PUBLIC RELEASE · JULY 18</text><text y="150" fill="#101416" font-family="Arial,Helvetica,sans-serif" font-size="128" font-weight="900" font-style="italic" letter-spacing="-7"><tspan x="0">PUBLIC IN</tspan><tspan x="0" dy="132">THREE</tspan><tspan x="0" dy="132">DAYS.</tspan></text><text y="520" fill="#101416" fill-opacity=".58" font-family="Arial,Helvetica,sans-serif" font-size="27">Private upload control for everyone.</text></g>
  <g transform="translate(70 960)"><rect width="940" height="260" rx="34" fill="#101416"/><text x="48" y="66" fill="#fff" fill-opacity=".34" font-family="Arial,Helvetica,sans-serif" font-size="14" font-weight="800" letter-spacing="3">AVAILABLE AT</text><text x="48" y="133" fill="#fff" font-family="monospace" font-size="37">uploadflow.cloudgrids.tech</text><rect x="48" y="170" width="278" height="55" rx="27.5" fill="#eefb7a"/><text x="90" y="204" fill="#101416" font-family="Arial,Helvetica,sans-serif" font-size="14" font-weight="900" letter-spacing="2">TRY THE LIVE DEMO</text><path d="M860 129h34m-12-12 12 12-12 12" fill="none" stroke="#eefb7a" stroke-width="5" stroke-linecap="round" stroke-linejoin="round"/></g>
  <g transform="translate(70 1370)"><text fill="#101416" font-family="Arial,Helvetica,sans-serif" font-size="52" font-weight="900" font-style="italic"><tspan x="0">SMALLER FILES.</tspan><tspan x="0" dy="68">SAFER UPLOADS.</tspan><tspan x="0" dy="68">YOUR CONTROL.</tspan></text></g>
  <text x="70" y="1770" fill="#101416" fill-opacity=".45" font-family="monospace" font-size="17">FOLLOW THE LAUNCH</text><text x="1010" y="1770" text-anchor="end" fill="#101416" font-family="Arial,Helvetica,sans-serif" font-size="15" font-weight="800" letter-spacing="2">03 / 03</text>
</svg>
