<svg xmlns="http://www.w3.org/2000/svg" width="1080" height="1920" viewBox="0 0 1080 1920"><defs><pattern id="g" width="48" height="48" patternUnits="userSpaceOnUse"><path fill="none" stroke="#fff" stroke-opacity=".04" d="M48 0H0V48"/></pattern><linearGradient id="p" x1="0" x2="1" y1="0" y2="1"><stop stop-color="#56777d"/><stop offset=".55" stop-color="#99bca8"/><stop offset="1" stop-color="#d9d6a5"/></linearGradient></defs><rect width="1080" height="1920" fill="#090c0d"/><rect width="1080" height="1920" fill="url(#g)"/><g font-family="Arial,Helvetica,sans-serif"><text x="70" y="110" fill="#34d399" font-size="15" font-weight="800" letter-spacing="5">FILE INTERCEPTED · 02</text><text x="70" y="190" fill="#fff" font-size="64" font-style="italic" font-weight="900">REVIEW IT FIRST.</text></g><g transform="translate(70 270)"><rect width="940" height="1290" fill="#101416" stroke="#fff" stroke-opacity=".18" stroke-width="2" rx="38"/><rect width="940" height="88" fill="#151a1c" rx="38"/><path stroke="#fff" stroke-opacity=".12" d="M0 88H940"/><circle cx="42" cy="44" r="10" fill="#ff6b65"/><circle cx="75" cy="44" r="10" fill="#f5c85b"/><circle cx="108" cy="44" r="10" fill="#57c981"/><text x="890" y="51" fill="#fff" fill-opacity=".35" font-family="monospace" font-size="15" letter-spacing="3" text-anchor="end">PRIVATE · LOCAL</text><rect width="225" height="1202" y="88" fill="#111618"/><path stroke="#fff" stroke-opacity=".12" d="M225 88V1290"/><g font-family="Arial,Helvetica,sans-serif"><rect width="58" height="58" x="28" y="130" fill="#fff" rx="17"/><text x="102" y="167" fill="#fff" font-size="22" font-style="italic" font-weight="900">UPLOADFLOW</text><rect width="181" height="64" x="22" y="235" fill="#fff" rx="16"/><text x="44" y="275" fill="#101416" font-size="17" font-weight="900">01</text><text x="83" y="275" fill="#101416" font-size="17" font-weight="900">FILES</text><text x="43" y="359" fill="#fff" fill-opacity=".48" font-size="17" font-weight="800">02</text><text x="82" y="359" fill="#fff" fill-opacity=".62" font-size="17" font-weight="800">OPTIMIZE</text><text x="43" y="436" fill="#fff" fill-opacity=".25" font-size="17" font-weight="800">03</text><text x="82" y="436" fill="#fff" fill-opacity=".35" font-size="17" font-weight="800">REDACT</text><text x="270" y="170" fill="#34d399" font-size="14" font-weight="900" letter-spacing="4">1 FILE INTERCEPTED</text><text x="270" y="234" fill="#fff" font-size="40" font-style="italic" font-weight="900">REVIEW BEFORE UPLOAD</text><rect width="620" height="650" x="270" y="310" fill="#1a2022" stroke="#fff" stroke-opacity=".2" rx="30"/><rect width="620" height="410" x="270" y="310" fill="url(#p)" rx="30"/><circle cx="580" cy="475" r="82" fill="#fff" fill-opacity=".45"/><circle cx="580" cy="475" r="53" fill="#49665d"/><path fill="#425c52" d="M405 720c0-130 78-220 175-220s175 90 175 220"/><rect width="72" height="44" x="300" y="344" fill="#151a1c" rx="12"/><text x="336" y="373" fill="#fff" font-size="16" font-weight="900" text-anchor="middle">JPG</text><text x="305" y="785" fill="#fff" font-size="27" font-weight="900">campaign-cover.jpg</text><text x="305" y="832" fill="#fff" fill-opacity=".36" font-family="monospace" font-size="18">4.8 MB · 3024×4032</text><rect width="72" height="72" x="790" y="770" fill="#eefb7a" rx="20"/><path fill="none" stroke="#101416" stroke-linecap="round" stroke-linejoin="round" stroke-width="6" d="M812 807l14 14 25-34"/><circle cx="292" cy="1020" r="7" fill="#34d399"/><text x="315" y="1027" fill="#34d399" font-size="15" font-weight="900" letter-spacing="3">READY TO EDIT</text><rect width="305" height="76" x="585" y="1150" fill="#fff" rx="18"/><text x="737" y="1198" fill="#101416" font-size="19" font-weight="900" text-anchor="middle">CONTINUE WITH 1 FILE</text></g></g><text x="70" y="1740" fill="#fff" fill-opacity=".3" font-family="monospace" font-size="18">Choose a private tool. Originals stay untouched.</text></svg>