<svg xmlns="http://www.w3.org/2000/svg" width="1080" height="1920" viewBox="0 0 1080 1920">
  <defs><pattern id="g" width="48" height="48" patternUnits="userSpaceOnUse"><path d="M48 0H0V48" fill="none" stroke="#fff" stroke-opacity=".04"/></pattern><linearGradient id="glow" x1="0" x2="1"><stop stop-color="#34d399" stop-opacity=".16"/><stop offset="1" stop-color="#eefb7a" stop-opacity=".05"/></linearGradient></defs>
  <rect width="1080" height="1920" fill="#090c0d"/><rect width="1080" height="1920" fill="url(#g)"/><ellipse cx="540" cy="900" rx="540" ry="700" fill="url(#glow)" opacity=".55"/>
  <g font-family="Arial,Helvetica,sans-serif"><text x="70" y="110" fill="#34d399" font-size="15" font-weight="800" letter-spacing="5">LIVE PRODUCT FLOW · 01</text><text x="70" y="190" fill="#fff" font-size="64" font-weight="900" font-style="italic">DROP A FILE.</text></g>
  <g transform="translate(70 270)"><rect width="940" height="1290" rx="38" fill="#101416" stroke="#fff" stroke-opacity=".18" stroke-width="2"/><rect width="940" height="88" rx="38" fill="#151a1c"/><path d="M0 88H940" stroke="#fff" stroke-opacity=".12"/><circle cx="42" cy="44" r="10" fill="#ff6b65"/><circle cx="75" cy="44" r="10" fill="#f5c85b"/><circle cx="108" cy="44" r="10" fill="#57c981"/><text x="890" y="51" text-anchor="end" fill="#fff" fill-opacity=".35" font-family="monospace" font-size="15" letter-spacing="3">PRIVATE · LOCAL</text>
    <rect y="88" width="225" height="1202" fill="#111618"/><path d="M225 88V1290" stroke="#fff" stroke-opacity=".12"/>
    <g font-family="Arial,Helvetica,sans-serif"><rect x="28" y="130" width="58" height="58" rx="17" fill="#fff"/><text x="102" y="167" fill="#fff" font-size="22" font-weight="900" font-style="italic">UPLOADFLOW</text>
      <rect x="22" y="235" width="181" height="64" rx="16" fill="#fff"/><text x="44" y="275" fill="#101416" font-size="17" font-weight="900">01</text><text x="83" y="275" fill="#101416" font-size="17" font-weight="900">FILES</text>
      <text x="43" y="359" fill="#fff" fill-opacity=".32" font-size="17" font-weight="800">02</text><text x="82" y="359" fill="#fff" fill-opacity=".42" font-size="17" font-weight="800">OPTIMIZE</text><text x="43" y="436" fill="#fff" fill-opacity=".25" font-size="17" font-weight="800">03</text><text x="82" y="436" fill="#fff" fill-opacity=".35" font-size="17" font-weight="800">REDACT</text><text x="43" y="513" fill="#fff" fill-opacity=".25" font-size="17" font-weight="800">04</text><text x="82" y="513" fill="#fff" fill-opacity=".35" font-size="17" font-weight="800">WATERMARK</text>
      <text x="270" y="170" fill="#34d399" font-size="14" font-weight="900" letter-spacing="4">PRIVATE FILE QUEUE</text><text x="270" y="234" fill="#fff" font-size="40" font-weight="900" font-style="italic">PREPARE BEFORE UPLOAD</text>
      <rect x="270" y="310" width="620" height="650" rx="30" fill="#151a1c" stroke="#fff" stroke-opacity=".2" stroke-width="2" stroke-dasharray="12 12"/><rect x="520" y="515" width="120" height="120" rx="30" fill="#eefb7a"/><path d="M580 548V602M553 575H607" stroke="#101416" stroke-width="8" stroke-linecap="round"/><text x="580" y="700" text-anchor="middle" fill="#fff" font-size="30" font-weight="900" font-style="italic">DROP YOUR FILE HERE</text><text x="580" y="748" text-anchor="middle" fill="#fff" fill-opacity=".38" font-size="18">PNG, JPG, WEBP, TXT and supported media.</text>
      <circle cx="292" cy="1020" r="7" fill="#34d399"/><text x="315" y="1027" fill="#34d399" font-size="15" font-weight="900" letter-spacing="3">WAITING LOCALLY</text><rect x="585" y="1150" width="305" height="76" rx="18" fill="#fff" fill-opacity=".12"/><text x="737" y="1198" text-anchor="middle" fill="#fff" fill-opacity=".35" font-size="19" font-weight="900">CONTINUE WITH 0 FILES</text>
    </g>
  </g>
  <text x="70" y="1740" fill="#fff" fill-opacity=".3" font-family="monospace" font-size="18">The upload pauses before leaving the browser.</text>
</svg>
