<svg xmlns="http://www.w3.org/2000/svg" width="1080" height="1920" viewBox="0 0 1080 1920"><defs><pattern id="g" width="48" height="48" patternUnits="userSpaceOnUse"><path fill="none" stroke="#fff" stroke-opacity=".04" d="M48 0H0V48"/></pattern><linearGradient id="glow" x1="0" x2="1"><stop stop-color="#34d399" stop-opacity=".16"/><stop offset="1" stop-color="#eefb7a" stop-opacity=".05"/></linearGradient></defs><rect width="1080" height="1920" fill="#090c0d"/><rect width="1080" height="1920" fill="url(#g)"/><ellipse cx="540" cy="900" fill="url(#glow)" opacity=".55" rx="540" ry="700"/><g font-family="Arial,Helvetica,sans-serif"><text x="70" y="110" fill="#34d399" font-size="15" font-weight="800" letter-spacing="5">LIVE PRODUCT FLOW · 01</text><text x="70" y="190" fill="#fff" font-size="64" font-style="italic" font-weight="900">DROP A FILE.</text></g><g transform="translate(70 270)"><rect width="940" height="1290" fill="#101416" stroke="#fff" stroke-opacity=".18" stroke-width="2" rx="38"/><rect width="940" height="88" fill="#151a1c" rx="38"/><path stroke="#fff" stroke-opacity=".12" d="M0 88H940"/><circle cx="42" cy="44" r="10" fill="#ff6b65"/><circle cx="75" cy="44" r="10" fill="#f5c85b"/><circle cx="108" cy="44" r="10" fill="#57c981"/><text x="890" y="51" fill="#fff" fill-opacity=".35" font-family="monospace" font-size="15" letter-spacing="3" text-anchor="end">PRIVATE · LOCAL</text><rect width="225" height="1202" y="88" fill="#111618"/><path stroke="#fff" stroke-opacity=".12" d="M225 88V1290"/><g font-family="Arial,Helvetica,sans-serif"><rect width="58" height="58" x="28" y="130" fill="#fff" rx="17"/><text x="102" y="167" fill="#fff" font-size="22" font-style="italic" font-weight="900">UPLOADFLOW</text><rect width="181" height="64" x="22" y="235" fill="#fff" rx="16"/><text x="44" y="275" fill="#101416" font-size="17" font-weight="900">01</text><text x="83" y="275" fill="#101416" font-size="17" font-weight="900">FILES</text><text x="43" y="359" fill="#fff" fill-opacity=".32" font-size="17" font-weight="800">02</text><text x="82" y="359" fill="#fff" fill-opacity=".42" font-size="17" font-weight="800">OPTIMIZE</text><text x="43" y="436" fill="#fff" fill-opacity=".25" font-size="17" font-weight="800">03</text><text x="82" y="436" fill="#fff" fill-opacity=".35" font-size="17" font-weight="800">REDACT</text><text x="43" y="513" fill="#fff" fill-opacity=".25" font-size="17" font-weight="800">04</text><text x="82" y="513" fill="#fff" fill-opacity=".35" font-size="17" font-weight="800">WATERMARK</text><text x="270" y="170" fill="#34d399" font-size="14" font-weight="900" letter-spacing="4">PRIVATE FILE QUEUE</text><text x="270" y="234" fill="#fff" font-size="40" font-style="italic" font-weight="900">PREPARE BEFORE UPLOAD</text><rect width="620" height="650" x="270" y="310" fill="#151a1c" stroke="#fff" stroke-dasharray="12 12" stroke-opacity=".2" stroke-width="2" rx="30"/><rect width="120" height="120" x="520" y="515" fill="#eefb7a" rx="30"/><path stroke="#101416" stroke-linecap="round" stroke-width="8" d="M580 548V602M553 575H607"/><text x="580" y="700" fill="#fff" font-size="30" font-style="italic" font-weight="900" text-anchor="middle">DROP YOUR FILE HERE</text><text x="580" y="748" fill="#fff" fill-opacity=".38" font-size="18" text-anchor="middle">PNG, JPG, WEBP, TXT and supported media.</text><circle cx="292" cy="1020" r="7" fill="#34d399"/><text x="315" y="1027" fill="#34d399" font-size="15" font-weight="900" letter-spacing="3">WAITING LOCALLY</text><rect width="305" height="76" x="585" y="1150" fill="#fff" fill-opacity=".12" rx="18"/><text x="737" y="1198" fill="#fff" fill-opacity=".35" font-size="19" font-weight="900" text-anchor="middle">CONTINUE WITH 0 FILES</text></g></g><text x="70" y="1740" fill="#fff" fill-opacity=".3" font-family="monospace" font-size="18">The upload pauses before leaving the browser.</text></svg>