<svg xmlns="http://www.w3.org/2000/svg" width="1080" height="1920" viewBox="0 0 1080 1920">
  <defs><pattern id="grid" width="48" height="48" patternUnits="userSpaceOnUse"><path d="M48 0H0V48" fill="none" stroke="#fff" stroke-opacity=".04"/></pattern><radialGradient id="glow" cx="20%" cy="75%" r="70%"><stop offset="0" stop-color="#eefb7a" stop-opacity=".09"/><stop offset="1" stop-color="#eefb7a" stop-opacity="0"/></radialGradient></defs>
  <rect width="1080" height="1920" fill="#0b0d0f"/><rect width="1080" height="1920" fill="url(#grid)"/><rect width="1080" height="1920" fill="url(#glow)"/>
  <g transform="translate(70 75)"><rect width="52" height="52" rx="15" fill="#fff"/><path d="M26 36V15m0 0-9 9m9-9 9 9M14 34v4a7 7 0 0 0 7 7h10a7 7 0 0 0 7-7v-4" fill="none" stroke="#101416" stroke-width="4" stroke-linecap="round" stroke-linejoin="round"/><text x="70" y="34" fill="#fff" font-family="Arial,Helvetica,sans-serif" font-size="24" font-weight="900" font-style="italic">UPLOADFLOW</text></g>
  <g transform="translate(70 270)"><text fill="#34d399" font-family="Arial,Helvetica,sans-serif" font-size="15" font-weight="800" letter-spacing="5">ONE PAUSE. TOTAL CONTROL.</text><text y="120" fill="#fff" font-family="Arial,Helvetica,sans-serif" font-size="100" font-weight="900" font-style="italic" letter-spacing="-5"><tspan x="0">INTERCEPT.</tspan><tspan x="0" dy="105">REVIEW.</tspan><tspan x="0" dy="105" fill="#eefb7a">RETURN.</tspan></text></g>
  <g transform="translate(70 760)">
    <g><rect width="940" height="230" rx="26" fill="#fff" fill-opacity=".035" stroke="#fff" stroke-opacity=".12"/><circle cx="92" cy="92" r="42" fill="#eefb7a"/><text x="92" y="102" text-anchor="middle" fill="#101416" font-family="monospace" font-size="24" font-weight="900">01</text><text x="170" y="83" fill="#fff" font-family="Arial,Helvetica,sans-serif" font-size="38" font-weight="900" font-style="italic">INTERCEPT</text><text x="170" y="125" fill="#fff" fill-opacity=".4" font-family="Arial,Helvetica,sans-serif" font-size="20">UploadFlow notices the file before the webpage does.</text><text x="170" y="166" fill="#34d399" font-family="monospace" font-size="14">SELECT · DROP · PASTE</text></g>
    <g transform="translate(0 260)"><rect width="940" height="230" rx="26" fill="#fff" fill-opacity=".035" stroke="#fff" stroke-opacity=".12"/><circle cx="92" cy="92" r="42" fill="#fff"/><text x="92" y="102" text-anchor="middle" fill="#101416" font-family="monospace" font-size="24" font-weight="900">02</text><text x="170" y="83" fill="#fff" font-family="Arial,Helvetica,sans-serif" font-size="38" font-weight="900" font-style="italic">REVIEW</text><text x="170" y="125" fill="#fff" fill-opacity=".4" font-family="Arial,Helvetica,sans-serif" font-size="20">Optimize, redact, watermark, or upscale privately.</text><text x="170" y="166" fill="#eefb7a" font-family="monospace" font-size="14">YOUR FILES STAY LOCAL</text></g>
    <g transform="translate(0 520)"><rect width="940" height="230" rx="26" fill="#eefb7a"/><circle cx="92" cy="92" r="42" fill="#101416"/><text x="92" y="102" text-anchor="middle" fill="#eefb7a" font-family="monospace" font-size="24" font-weight="900">03</text><text x="170" y="83" fill="#101416" font-family="Arial,Helvetica,sans-serif" font-size="38" font-weight="900" font-style="italic">RETURN</text><text x="170" y="125" fill="#101416" fill-opacity=".6" font-family="Arial,Helvetica,sans-serif" font-size="20">Continue the original upload with the finished file.</text><text x="170" y="166" fill="#101416" font-family="monospace" font-size="14">YOU APPROVE THE HANDOFF</text></g>
  </g>
  <text x="70" y="1770" fill="#fff" fill-opacity=".3" font-family="monospace" font-size="17">uploadflow.cloudgrids.tech</text><text x="1010" y="1770" text-anchor="end" fill="#34d399" font-family="Arial,Helvetica,sans-serif" font-size="15" font-weight="800" letter-spacing="2">02 / 03</text>
</svg>
